<svg height="512pt" viewBox="0 0 512 512" width="512pt" xmlns="http://www.w3.org/2000/svg"><path d="m0 138.5h138.5v-138.5h-138.5zm30-108.5h78.5v78.5h-78.5zm0 0"/><path d="m373.5 0v138.5h138.5v-138.5zm108.5 108.5h-78.5v-78.5h78.5zm0 0"/><path d="m186.75 138.5h138.5v-138.5h-138.5zm30-108.5h78.5v78.5h-78.5zm0 0"/><path d="m0 325.25h138.5v-138.5h-138.5zm30-108.5h78.5v78.5h-78.5zm0 0"/><path d="m373.5 325.25h138.5v-138.5h-138.5zm30-108.5h78.5v78.5h-78.5zm0 0"/><path d="m186.75 325.25h138.5v-138.5h-138.5zm30-108.5h78.5v78.5h-78.5zm0 0"/><path d="m0 512h138.5v-138.5h-138.5zm30-108.5h78.5v78.5h-78.5zm0 0"/><path d="m373.5 512h138.5v-138.5h-138.5zm30-108.5h78.5v78.5h-78.5zm0 0"/><path d="m186.75 512h138.5v-138.5h-138.5zm30-108.5h78.5v78.5h-78.5zm0 0"/></svg>